<mxfile host="Electron" agent="Mozilla/5.0 (X11; Linux x86_64) AppleWebKit/537.36 (KHTML, like Gecko) draw.io/26.0.16 Chrome/132.0.6834.196 Electron/34.2.0 Safari/537.36" version="26.0.16">
  <diagram id="C5RBs43oDa-KdzZeNtuy" name="Page-1">
    <mxGraphModel dx="1114" dy="657" grid="1" gridSize="10" guides="1" tooltips="1" connect="1" arrows="1" fold="1" page="1" pageScale="1" pageWidth="827" pageHeight="1169" math="0" shadow="0">
      <root>
        <mxCell id="WIyWlLk6GJQsqaUBKTNV-0" />
        <mxCell id="WIyWlLk6GJQsqaUBKTNV-1" parent="WIyWlLk6GJQsqaUBKTNV-0" />
        <mxCell id="wwOOgm4HWEWc742TXaOU-2" style="edgeStyle=orthogonalEdgeStyle;rounded=0;orthogonalLoop=1;jettySize=auto;html=1;entryX=0.5;entryY=0;entryDx=0;entryDy=0;" edge="1" parent="WIyWlLk6GJQsqaUBKTNV-1" target="wwOOgm4HWEWc742TXaOU-1">
          <mxGeometry relative="1" as="geometry">
            <mxPoint x="409" y="100" as="sourcePoint" />
          </mxGeometry>
        </mxCell>
        <mxCell id="wwOOgm4HWEWc742TXaOU-4" style="edgeStyle=orthogonalEdgeStyle;rounded=0;orthogonalLoop=1;jettySize=auto;html=1;entryX=0.5;entryY=0;entryDx=0;entryDy=0;" edge="1" parent="WIyWlLk6GJQsqaUBKTNV-1" source="wwOOgm4HWEWc742TXaOU-1" target="wwOOgm4HWEWc742TXaOU-3">
          <mxGeometry relative="1" as="geometry" />
        </mxCell>
        <mxCell id="wwOOgm4HWEWc742TXaOU-1" value="max_stars = 5,&lt;div&gt;counter = 1,&lt;/div&gt;&lt;div&gt;stars_on_line = 0;&lt;/div&gt;" style="rounded=0;whiteSpace=wrap;html=1;" vertex="1" parent="WIyWlLk6GJQsqaUBKTNV-1">
          <mxGeometry x="349" y="130" width="120" height="60" as="geometry" />
        </mxCell>
        <mxCell id="wwOOgm4HWEWc742TXaOU-7" style="edgeStyle=orthogonalEdgeStyle;rounded=0;orthogonalLoop=1;jettySize=auto;html=1;entryX=1;entryY=0.5;entryDx=0;entryDy=0;" edge="1" parent="WIyWlLk6GJQsqaUBKTNV-1" source="wwOOgm4HWEWc742TXaOU-3">
          <mxGeometry relative="1" as="geometry">
            <mxPoint x="280" y="275" as="targetPoint" />
          </mxGeometry>
        </mxCell>
        <mxCell id="wwOOgm4HWEWc742TXaOU-12" style="edgeStyle=orthogonalEdgeStyle;rounded=0;orthogonalLoop=1;jettySize=auto;html=1;entryX=0.5;entryY=0;entryDx=0;entryDy=0;" edge="1" parent="WIyWlLk6GJQsqaUBKTNV-1" source="wwOOgm4HWEWc742TXaOU-3" target="wwOOgm4HWEWc742TXaOU-11">
          <mxGeometry relative="1" as="geometry" />
        </mxCell>
        <mxCell id="wwOOgm4HWEWc742TXaOU-3" value="counter &amp;lt;= max_stars" style="rhombus;whiteSpace=wrap;html=1;" vertex="1" parent="WIyWlLk6GJQsqaUBKTNV-1">
          <mxGeometry x="323.5" y="230" width="171" height="90" as="geometry" />
        </mxCell>
        <mxCell id="wwOOgm4HWEWc742TXaOU-8" value="No" style="text;html=1;align=center;verticalAlign=middle;whiteSpace=wrap;rounded=0;" vertex="1" parent="WIyWlLk6GJQsqaUBKTNV-1">
          <mxGeometry x="276" y="243" width="60" height="30" as="geometry" />
        </mxCell>
        <mxCell id="wwOOgm4HWEWc742TXaOU-15" style="edgeStyle=orthogonalEdgeStyle;rounded=0;orthogonalLoop=1;jettySize=auto;html=1;entryX=0.5;entryY=0;entryDx=0;entryDy=0;" edge="1" parent="WIyWlLk6GJQsqaUBKTNV-1" source="wwOOgm4HWEWc742TXaOU-11" target="wwOOgm4HWEWc742TXaOU-14">
          <mxGeometry relative="1" as="geometry" />
        </mxCell>
        <mxCell id="wwOOgm4HWEWc742TXaOU-11" value="stars_on_line = counter;" style="rounded=0;whiteSpace=wrap;html=1;" vertex="1" parent="WIyWlLk6GJQsqaUBKTNV-1">
          <mxGeometry x="349" y="345" width="120" height="60" as="geometry" />
        </mxCell>
        <mxCell id="wwOOgm4HWEWc742TXaOU-13" value="Yes" style="text;html=1;align=center;verticalAlign=middle;whiteSpace=wrap;rounded=0;" vertex="1" parent="WIyWlLk6GJQsqaUBKTNV-1">
          <mxGeometry x="354" y="320" width="60" height="30" as="geometry" />
        </mxCell>
        <mxCell id="wwOOgm4HWEWc742TXaOU-19" style="edgeStyle=orthogonalEdgeStyle;rounded=0;orthogonalLoop=1;jettySize=auto;html=1;" edge="1" parent="WIyWlLk6GJQsqaUBKTNV-1" source="wwOOgm4HWEWc742TXaOU-14" target="wwOOgm4HWEWc742TXaOU-18">
          <mxGeometry relative="1" as="geometry" />
        </mxCell>
        <mxCell id="wwOOgm4HWEWc742TXaOU-27" style="edgeStyle=orthogonalEdgeStyle;rounded=0;orthogonalLoop=1;jettySize=auto;html=1;entryX=0.5;entryY=0;entryDx=0;entryDy=0;" edge="1" parent="WIyWlLk6GJQsqaUBKTNV-1" source="wwOOgm4HWEWc742TXaOU-14" target="wwOOgm4HWEWc742TXaOU-25">
          <mxGeometry relative="1" as="geometry" />
        </mxCell>
        <mxCell id="wwOOgm4HWEWc742TXaOU-14" value="stars_on_line &amp;gt; 0" style="rhombus;whiteSpace=wrap;html=1;" vertex="1" parent="WIyWlLk6GJQsqaUBKTNV-1">
          <mxGeometry x="329" y="440" width="160" height="80" as="geometry" />
        </mxCell>
        <mxCell id="wwOOgm4HWEWc742TXaOU-22" style="edgeStyle=orthogonalEdgeStyle;rounded=0;orthogonalLoop=1;jettySize=auto;html=1;" edge="1" parent="WIyWlLk6GJQsqaUBKTNV-1">
          <mxGeometry relative="1" as="geometry">
            <mxPoint x="410" y="210" as="targetPoint" />
            <mxPoint x="599" y="350" as="sourcePoint" />
            <Array as="points">
              <mxPoint x="579" y="350" />
              <mxPoint x="579" y="210" />
            </Array>
          </mxGeometry>
        </mxCell>
        <mxCell id="wwOOgm4HWEWc742TXaOU-16" value="&lt;div&gt;&lt;span style=&quot;background-color: transparent; color: light-dark(rgb(0, 0, 0), rgb(255, 255, 255));&quot;&gt;counter++;&lt;/span&gt;&lt;/div&gt;" style="rounded=0;whiteSpace=wrap;html=1;" vertex="1" parent="WIyWlLk6GJQsqaUBKTNV-1">
          <mxGeometry x="519" y="350" width="120" height="60" as="geometry" />
        </mxCell>
        <mxCell id="wwOOgm4HWEWc742TXaOU-20" style="edgeStyle=orthogonalEdgeStyle;rounded=0;orthogonalLoop=1;jettySize=auto;html=1;entryX=0.5;entryY=1;entryDx=0;entryDy=0;" edge="1" parent="WIyWlLk6GJQsqaUBKTNV-1" source="wwOOgm4HWEWc742TXaOU-18" target="wwOOgm4HWEWc742TXaOU-16">
          <mxGeometry relative="1" as="geometry" />
        </mxCell>
        <mxCell id="wwOOgm4HWEWc742TXaOU-18" value="printf(&quot;\n&quot;);" style="shape=parallelogram;perimeter=parallelogramPerimeter;whiteSpace=wrap;html=1;fixedSize=1;" vertex="1" parent="WIyWlLk6GJQsqaUBKTNV-1">
          <mxGeometry x="519" y="450" width="120" height="60" as="geometry" />
        </mxCell>
        <mxCell id="wwOOgm4HWEWc742TXaOU-24" value="No" style="text;html=1;align=center;verticalAlign=middle;whiteSpace=wrap;rounded=0;" vertex="1" parent="WIyWlLk6GJQsqaUBKTNV-1">
          <mxGeometry x="475" y="449" width="60" height="30" as="geometry" />
        </mxCell>
        <mxCell id="wwOOgm4HWEWc742TXaOU-25" value="printf(&quot;*&quot;);" style="shape=parallelogram;perimeter=parallelogramPerimeter;whiteSpace=wrap;html=1;fixedSize=1;" vertex="1" parent="WIyWlLk6GJQsqaUBKTNV-1">
          <mxGeometry x="349" y="554.5" width="120" height="60" as="geometry" />
        </mxCell>
        <mxCell id="wwOOgm4HWEWc742TXaOU-29" value="Yes" style="text;html=1;align=center;verticalAlign=middle;whiteSpace=wrap;rounded=0;" vertex="1" parent="WIyWlLk6GJQsqaUBKTNV-1">
          <mxGeometry x="400" y="520" width="60" height="30" as="geometry" />
        </mxCell>
        <mxCell id="wwOOgm4HWEWc742TXaOU-33" style="edgeStyle=orthogonalEdgeStyle;rounded=0;orthogonalLoop=1;jettySize=auto;html=1;" edge="1" parent="WIyWlLk6GJQsqaUBKTNV-1" source="wwOOgm4HWEWc742TXaOU-30">
          <mxGeometry relative="1" as="geometry">
            <mxPoint x="410" y="420" as="targetPoint" />
            <Array as="points">
              <mxPoint x="250" y="420" />
            </Array>
          </mxGeometry>
        </mxCell>
        <mxCell id="wwOOgm4HWEWc742TXaOU-30" value="stars_on_line--;" style="rounded=0;whiteSpace=wrap;html=1;" vertex="1" parent="WIyWlLk6GJQsqaUBKTNV-1">
          <mxGeometry x="190" y="555" width="120" height="60" as="geometry" />
        </mxCell>
        <mxCell id="wwOOgm4HWEWc742TXaOU-31" style="edgeStyle=orthogonalEdgeStyle;rounded=0;orthogonalLoop=1;jettySize=auto;html=1;exitX=0;exitY=0.5;exitDx=0;exitDy=0;entryX=1;entryY=0.5;entryDx=0;entryDy=0;" edge="1" parent="WIyWlLk6GJQsqaUBKTNV-1" source="wwOOgm4HWEWc742TXaOU-25" target="wwOOgm4HWEWc742TXaOU-30">
          <mxGeometry relative="1" as="geometry" />
        </mxCell>
        <mxCell id="wwOOgm4HWEWc742TXaOU-34" value="start" style="ellipse;whiteSpace=wrap;html=1;" vertex="1" parent="WIyWlLk6GJQsqaUBKTNV-1">
          <mxGeometry x="348" y="20" width="121" height="80" as="geometry" />
        </mxCell>
        <mxCell id="wwOOgm4HWEWc742TXaOU-35" value="stop" style="ellipse;whiteSpace=wrap;html=1;" vertex="1" parent="WIyWlLk6GJQsqaUBKTNV-1">
          <mxGeometry x="160" y="235" width="120" height="80" as="geometry" />
        </mxCell>
      </root>
    </mxGraphModel>
  </diagram>
</mxfile>
